<svg width="65" height="40" fill="none" xmlns="http://www.w3.org/2000/svg"><path fill-rule="evenodd" clip-rule="evenodd" d="M23.786 38.92c-.196.187-.453.28-.77.28H12.46c-.317 0-.579-.093-.784-.28-.205-.187-.308-.457-.308-.812v-1.82c0-.28-.023-.527-.07-.742a26.565 26.565 0 0 0-.238-.966L3.22 4.172c-.13-.485-.29-.84-.476-1.064-.187-.224-.457-.401-.812-.532L.7 2.184a1.136 1.136 0 0 1-.532-.462A1.25 1.25 0 0 1 0 1.092C0 .756.112.49.336.294.56.098.896 0 1.344 0h16.212c.467 0 .812.098 1.036.294.224.196.336.462.336.798 0 .504-.252.84-.756 1.008l-1.456.336c-.373.112-.607.34-.7.686l-.029.135c-.053.325-.006.733.141 1.223l6.502 25.909 5.553-19.475-1.751-6.742c-.168-.597-.322-.999-.462-1.204a1.186 1.186 0 0 0-.602-.448l-1.176-.42c-.28-.112-.48-.247-.602-.406a.917.917 0 0 1-.182-.574c0-.355.117-.63.35-.826C23.991.098 24.332 0 24.78 0h15.876c.467 0 .812.098 1.036.294.224.196.336.471.336.826 0 .243-.07.453-.21.63-.14.177-.36.322-.658.434l-1.232.336c-.355.112-.579.313-.672.602l-.027.103c-.059.293-.022.73.111 1.311l6.477 25.81L51.352 6.86c.243-1.027.173-1.923-.21-2.688-.383-.765-1.134-1.353-2.254-1.764l-.616-.224c-.261-.13-.453-.275-.574-.434-.121-.159-.182-.369-.182-.63 0-.336.117-.607.35-.812.233-.205.583-.308 1.05-.308h8.904c.467 0 .817.103 1.05.308.233.205.35.476.35.812 0 .261-.07.471-.21.63-.14.159-.378.322-.714.49l-.672.308c-.821.355-1.55.91-2.184 1.666-.635.756-1.101 1.76-1.4 3.01l-6.216 26.908c-.13.485-.22.873-.266 1.162-.047.29-.07.62-.07.994v1.82c0 .355-.103.625-.308.812-.205.187-.457.28-.756.28H35.728c-.317 0-.574-.093-.77-.28-.196-.187-.294-.457-.294-.812v-1.82c0-.261-.023-.5-.07-.714l-.023-.1c-.05-.212-.131-.51-.243-.894l-4.822-18.57-5.09 18.122c-.093.317-.173.644-.238.98a6.227 6.227 0 0 0-.098 1.176v1.82c0 .355-.098.625-.294.812Zm37.24.112c-.943.579-2.011.868-3.206.868-1.157 0-2.207-.29-3.15-.868a6.338 6.338 0 0 1-2.24-2.338 6.38 6.38 0 0 1-.826-3.178c0-1.157.275-2.212.826-3.164a6.324 6.324 0 0 1 2.24-2.282c.943-.57 1.993-.854 3.15-.854 1.195 0 2.263.285 3.206.854.943.57 1.69 1.33 2.24 2.282.55.952.826 2.007.826 3.164a6.38 6.38 0 0 1-.826 3.178 6.338 6.338 0 0 1-2.24 2.338Z" fill="#00001A"/></svg>